<?xml version="1.0" standalone="no"?>
<!DOCTYPE svg PUBLIC "-//W3C//DTD SVG 20010904//EN"
 "http://www.w3.org/TR/2001/REC-SVG-20010904/DTD/svg10.dtd">
<svg version="1.0" xmlns="http://www.w3.org/2000/svg"
 width="512.000000pt" height="512.000000pt" viewBox="0 0 512.000000 512.000000"
 preserveAspectRatio="xMidYMid meet">
<metadata>
Created by potrace 1.11, written by Peter Selinger 2001-2013
</metadata>
<g transform="translate(0.000000,512.000000) scale(0.100000,-0.100000)"
fill="#000000" stroke="none">
<path d="M0 5112 c0 -5 14 -7 30 -4 39 6 39 12 0 12 -17 0 -30 -4 -30 -8z"/>
<path d="M148 5113 c7 -3 16 -2 19 1 4 3 -2 6 -13 5 -11 0 -14 -3 -6 -6z"/>
<path d="M548 5113 c7 -3 16 -2 19 1 4 3 -2 6 -13 5 -11 0 -14 -3 -6 -6z"/>
<path d="M635 5109 c-4 -6 -5 -12 -2 -15 2 -3 7 2 10 11 7 17 1 20 -8 4z"/>
<path d="M734 5112 c-9 -5 -8 -11 2 -20 12 -11 14 -10 14 3 0 9 4 14 8 11 4
-2 14 -1 22 5 12 7 9 9 -10 9 -14 0 -30 -4 -36 -8z"/>
<path d="M448 5083 c7 -3 16 -2 19 1 4 3 -2 6 -13 5 -11 0 -14 -3 -6 -6z"/>
<path d="M2 4974 c3 -25 10 -28 143 -61 77 -19 185 -45 240 -58 104 -24 301
-71 465 -110 378 -90 919 -219 990 -235 288 -67 714 -171 718 -175 3 -2 -15
-24 -38 -49 -24 -25 -51 -57 -62 -73 -47 -69 -118 -229 -118 -265 0 -12 -8
-18 -21 -18 -18 0 -20 -2 -8 -16 9 -11 13 -56 13 -155 0 -134 0 -140 -22 -155
-21 -15 -23 -20 -16 -85 l7 -69 -38 0 c-20 0 -94 9 -164 20 -179 29 -294 47
-381 60 -87 14 -270 44 -385 65 -44 8 -123 19 -175 25 -52 6 -138 17 -190 25
-52 8 -144 21 -205 29 -179 25 -516 76 -570 86 -27 6 -80 14 -118 18 l-67 8 0
-897 0 -898 188 5 c211 6 249 9 255 27 2 7 8 9 12 5 14 -13 -4 -38 -28 -38
-14 0 -32 -11 -45 -30 -21 -27 -27 -29 -99 -33 l-78 -3 83 -2 c76 -2 82 -4 82
-23 0 -13 8 -23 21 -26 17 -5 20 -11 15 -34 -3 -16 -1 -29 4 -29 6 0 1 -16 -9
-36 -13 -23 -42 -50 -80 -74 -76 -46 -101 -68 -101 -89 0 -9 -7 -27 -16 -40
-17 -23 -16 -23 15 -16 35 7 38 0 15 -34 -13 -18 -23 -22 -44 -17 -18 3 -33 0
-40 -9 -10 -13 -8 -15 15 -15 39 0 26 -24 -16 -28 -35 -3 -109 -63 -109 -89 0
-7 -9 -18 -20 -25 -20 -13 -20 -24 -20 -675 l0 -663 636 0 c627 0 636 0 641
20 7 26 33 26 33 0 0 -20 7 -20 610 -20 546 0 610 2 618 16 10 18 58 15 55 -4
-2 -9 277 -12 1262 -12 l1265 0 0 779 c-1 862 5 791 -66 791 -34 0 -38 -6 -35
-42 3 -22 2 -22 -40 -4 -19 7 -39 11 -46 9 -6 -2 -14 1 -18 6 -3 7 3 11 16 11
18 0 20 3 11 12 -7 7 -12 20 -12 31 0 14 5 17 20 12 28 -9 25 9 -4 24 -30 17
-43 9 -43 -24 -1 -34 -29 -85 -60 -109 -33 -24 -50 -8 -23 22 24 25 25 29 5
29 -8 0 -15 -4 -15 -9 0 -4 -12 -8 -27 -8 -23 -1 -25 -2 -12 -10 10 -6 15 -18
12 -33 -4 -20 1 -26 26 -35 17 -6 31 -9 31 -6 0 2 9 -5 21 -17 11 -11 18 -23
14 -27 -11 -11 -77 32 -108 70 -19 24 -39 38 -54 38 -13 0 -23 5 -23 10 0 6 8
10 19 10 14 0 18 6 16 28 -1 15 -6 35 -10 45 -12 28 3 64 29 71 13 3 32 9 41
12 14 6 16 3 10 -17 -4 -15 -3 -19 3 -11 7 10 11 10 21 -2 15 -18 7 -36 -17
-37 -10 0 -12 -3 -5 -5 7 -3 22 0 34 6 17 9 20 18 15 41 -4 21 -1 31 9 35 12
5 10 10 -8 26 -12 11 -17 17 -11 14 7 -3 36 -8 65 -11 135 -13 131 -12 176
-62 l42 -48 0 68 c-1 51 -5 70 -17 80 -29 21 -56 57 -43 57 6 0 19 -9 28 -20
22 -25 28 -25 30 -1 2 22 -52 47 -62 30 -4 -5 -15 -9 -25 -9 -21 0 -53 28 -45
40 3 5 -1 11 -7 14 -7 3 13 4 45 3 47 -3 57 -1 57 12 1 14 3 13 14 -2 13 -16
14 -16 20 5 10 40 7 48 -22 48 -16 0 -36 8 -45 18 -25 27 -21 35 8 16 14 -9
25 -12 25 -6 0 6 -4 14 -10 17 -15 10 -12 25 6 25 22 0 46 27 42 48 -2 11 -13
17 -31 17 -15 1 -32 6 -38 12 -16 16 25 27 51 13 16 -9 20 -8 20 5 0 20 -24
45 -43 45 -8 0 -20 6 -27 14 -8 11 -24 13 -61 9 -55 -6 -133 17 -143 43 -3 8
-14 14 -23 13 -30 -4 -71 12 -78 29 -9 24 15 33 70 27 28 -4 69 -9 93 -12 24
-3 42 -1 42 5 0 5 -19 12 -42 16 -39 6 -150 56 -173 77 -6 6 4 7 25 4 34 -5
34 -5 -10 16 -78 36 -240 90 -420 139 -156 43 -351 100 -375 110 -38 16 -87
20 -107 9 -15 -8 -22 -8 -28 1 -5 8 -22 9 -52 5 -43 -7 -45 -6 -57 23 -7 17
-10 35 -7 41 4 6 -5 13 -20 17 -24 6 -25 8 -9 17 33 18 357 -10 555 -48 274
-52 543 -139 780 -253 l105 -51 3 321 c1 177 1 322 -1 324 -4 4 -187 33 -317
49 -58 7 -152 20 -210 28 -58 9 -181 25 -275 36 -93 12 -219 28 -280 36 -60 8
-138 17 -172 21 -35 4 -63 10 -63 13 0 4 14 12 30 18 22 8 30 18 30 35 0 13 4
28 9 34 5 5 14 32 20 59 6 28 13 58 16 67 2 10 11 28 19 40 22 30 20 42 -9 76
-28 33 -30 53 -14 100 14 40 29 32 29 -14 0 -27 4 -34 19 -34 10 0 65 -9 122
-20 201 -38 255 -49 374 -70 174 -31 637 -120 658 -126 16 -5 17 19 17 420 0
278 -4 426 -11 426 -5 0 -12 -7 -15 -15 -3 -8 -15 -17 -26 -21 -12 -3 -31 -18
-43 -32 l-22 -26 -8 23 c-6 18 -9 21 -16 10 -7 -11 -9 -11 -9 -1 0 7 -4 10
-10 7 -5 -3 -7 -20 -5 -38 4 -28 4 -29 -4 -7 -5 14 -9 19 -10 13 -1 -15 -31
-18 -31 -3 0 6 5 10 10 10 13 0 13 27 -1 36 -13 7 -61 -15 -54 -26 2 -4 -2
-16 -10 -26 -13 -16 -16 -17 -25 -4 -9 14 -14 8 -11 -15 1 -5 -7 0 -18 13 -19
22 -40 25 -52 8 -8 -10 -49 11 -49 26 0 7 -7 5 -18 -4 -17 -15 -103 -35 -152
-36 -193 -4 -270 -8 -270 -15 0 -5 -9 -5 -21 -2 -13 4 -27 0 -40 -11 -10 -9
-19 -13 -19 -8 0 11 -141 34 -203 34 -20 0 -37 4 -37 8 0 4 -10 8 -22 9 -43 4
-74 25 -106 73 -36 52 -157 170 -174 170 -6 0 -34 15 -62 33 -54 34 -71 42
-206 89 -78 27 -96 30 -230 31 -88 0 -167 -5 -200 -13 -46 -11 -264 -111 -327
-150 -15 -10 -44 -6 -148 19 -72 17 -168 42 -215 56 -127 37 -530 133 -740
176 -52 11 -158 35 -235 54 -77 19 -171 41 -210 50 -38 9 -79 18 -90 21 -16 4
-17 3 -5 -5 13 -10 13 -11 0 -11 -24 0 -83 19 -89 28 -3 5 -17 12 -31 16 -19
6 -21 5 -10 -3 8 -6 10 -11 4 -11 -6 0 -17 7 -25 16 -7 8 -21 13 -30 11 -10
-3 -20 0 -23 7 -3 7 -5 7 -5 -1 -1 -7 -6 -13 -12 -13 -5 0 -8 4 -4 9 3 5 1 12
-5 16 -5 3 -10 1 -10 -4 0 -6 -5 -11 -11 -11 -5 0 -7 4 -4 10 3 5 -7 12 -22
16 -15 3 -44 10 -63 15 -43 11 -75 10 -40 -1 l25 -8 -25 0 c-27 -1 -75 16 -51
17 33 2 -9 19 -94 40 -49 12 -99 26 -110 32 -11 5 -51 16 -90 25 -38 8 -77 17
-85 19 -23 7 -144 34 -153 35 -5 0 -7 -12 -5 -26z m3390 -796 c6 -10 8 -10 8
0 0 7 5 10 11 6 8 -4 8 -9 0 -17 -14 -14 -37 -19 -83 -17 -20 0 -54 -9 -76
-20 -33 -17 -40 -26 -39 -47 3 -33 44 -64 85 -65 18 -1 32 -4 32 -7 0 -4 27
-13 59 -20 55 -12 129 -47 119 -56 -2 -2 -35 0 -73 6 -50 7 -85 6 -125 -3 -30
-6 -113 -12 -185 -11 -115 0 -136 2 -177 22 -52 25 -61 46 -25 60 12 5 37 21
56 35 19 14 41 26 48 26 7 0 13 5 13 10 0 6 7 10 16 10 9 0 25 11 36 25 11 14
23 23 28 20 5 -3 12 0 16 6 5 9 11 7 21 -6 12 -18 13 -18 13 2 0 42 197 79
222 41z m73 -7 c3 -5 1 -12 -5 -16 -5 -3 -10 1 -10 9 0 18 6 21 15 7z m1552
-103 c-3 -8 -6 -5 -6 6 -1 11 2 17 5 13 3 -3 4 -12 1 -19z m-957 -38 c24 -8
24 -8 -5 -9 -16 0 -37 4 -45 9 -12 8 -11 10 5 9 11 -1 31 -5 45 -9z m-1373
-276 c-3 -3 -12 -4 -19 -1 -8 3 -5 6 6 6 11 1 17 -2 13 -5z m499 -14 c39 -15
19 -30 -41 -30 -67 0 -85 7 -85 32 0 19 4 20 50 14 28 -4 62 -11 76 -16z m331
4 c-3 -3 -12 -4 -19 -1 -8 3 -5 6 6 6 11 1 17 -2 13 -5z m46 -11 c-7 -2 -19
-2 -25 0 -7 3 -2 5 12 5 14 0 19 -2 13 -5z m-272 -38 c1 -19 -20 -16 -31 4 -9
18 -8 20 11 13 11 -5 20 -12 20 -17z m202 -62 c-7 -2 -19 -2 -25 0 -7 3 -2 5
12 5 14 0 19 -2 13 -5z m-108 -91 c28 -13 62 -29 78 -37 15 -8 27 -10 27 -5 0
6 5 9 11 8 6 -2 14 3 17 11 2 8 0 11 -6 7 -11 -6 -24 18 -15 28 14 14 33 4 50
-24 17 -30 45 -42 41 -17 -2 8 14 12 54 12 54 0 58 -2 58 -23 0 -13 4 -31 10
-41 14 -27 -68 -108 -118 -117 -20 -4 -44 -10 -52 -14 -8 -4 -36 -11 -62 -14
-43 -7 -47 -5 -43 11 7 23 -11 -13 -19 -41 -5 -14 -10 -16 -18 -8 -8 8 -6 18
7 38 17 26 17 29 0 56 -9 16 -15 32 -12 34 2 3 -13 23 -34 45 -22 22 -39 45
-39 50 0 5 -7 9 -15 9 -8 0 -15 5 -15 10 0 6 0 12 0 15 0 3 3 4 6 3 3 -2 10 5
16 15 5 10 13 17 16 15 4 -2 30 -14 57 -26z m-185 -50 c14 -6 42 -13 62 -17
62 -10 59 -28 -3 -20 -29 4 -104 7 -166 7 -150 0 -163 21 -23 38 65 8 96 6
130 -8z m-200 -257 c0 -7 -58 3 -74 13 -5 2 2 11 15 18 21 11 26 10 42 -6 9
-11 17 -22 17 -25z m151 25 c34 -19 20 -30 -38 -30 l-58 0 30 19 c36 23 41 24
66 11z m64 -111 c5 -6 4 -9 -3 -9 -7 0 -12 -4 -12 -10 0 -5 11 -10 25 -10 14
0 25 -4 25 -10 0 -14 -26 -12 -58 4 -15 7 -56 14 -92 15 -36 0 -78 5 -95 10
l-30 9 28 1 c15 1 27 5 27 9 0 11 172 2 185 -9z m-1714 -53 c63 -8 144 -19
180 -25 35 -5 91 -12 124 -15 34 -3 72 -9 85 -14 14 -5 63 -13 110 -16 47 -4
123 -11 170 -16 47 -5 92 -9 100 -9 53 0 82 -6 92 -18 6 -8 13 -45 15 -83 3
-63 1 -68 -20 -74 -28 -7 -100 -97 -107 -134 l-5 -27 -175 -7 c-101 -5 -220
-3 -280 2 -58 6 -197 9 -310 9 l-205 -2 -135 -52 c-143 -55 -190 -68 -190 -53
0 6 -9 17 -20 26 -24 20 -33 79 -11 74 20 -4 71 18 72 32 3 32 -4 53 -27 73
-32 29 -30 48 6 75 36 26 38 40 8 60 -19 13 -21 18 -10 30 10 12 8 20 -8 41
-12 15 -20 40 -20 65 0 47 25 68 86 75 73 8 359 -2 475 -17z m917 -201 c-3 -3
-9 2 -12 12 -6 14 -5 15 5 6 7 -7 10 -15 7 -18z m-1431 -21 c-3 -3 -12 -4 -19
-1 -8 3 -5 6 6 6 11 1 17 -2 13 -5z m1473 -4 c0 -5 -11 -10 -25 -10 -14 0 -25
5 -25 10 0 6 11 10 25 10 14 0 25 -4 25 -10z m1150 -220 c0 -5 -12 -10 -27
-10 -22 0 -25 2 -13 10 20 13 40 13 40 0z m-1976 -57 c20 -10 36 -24 36 -30 0
-18 -11 -16 -40 7 -14 11 -31 20 -37 20 -15 0 -18 20 -3 20 5 0 25 -8 44 -17z
m-180 -16 c79 -26 97 -47 42 -47 -20 0 -36 -4 -36 -9 0 -15 -37 -23 -70 -16
-40 9 -56 39 -39 71 15 29 17 29 103 1z m2201 13 c3 -5 1 -10 -4 -10 -6 0 -11
5 -11 10 0 6 2 10 4 10 3 0 8 -4 11 -10z m-168 -16 c-3 -3 -12 -4 -19 -1 -8 3
-5 6 6 6 11 1 17 -2 13 -5z m-22 -33 c8 -14 -13 -24 -33 -16 -14 5 -14 7 -2
15 19 12 27 12 35 1z m-1885 -21 c0 -5 -5 -10 -11 -10 -5 0 -7 5 -4 10 3 6 8
10 11 10 2 0 4 -4 4 -10z m-265 -10 c-3 -5 -28 -10 -55 -10 -27 0 -52 5 -55
10 -4 6 17 10 55 10 38 0 59 -4 55 -10z m1185 -10 c0 -5 -4 -10 -10 -10 -5 0
-10 5 -10 10 0 6 5 10 10 10 6 0 10 -4 10 -10z m127 4 c-3 -3 -12 -4 -19 -1
-8 3 -5 6 6 6 11 1 17 -2 13 -5z m-1277 -24 c0 -16 6 -19 36 -17 22 1 39 -3
41 -10 3 -8 -3 -13 -14 -13 -11 0 -28 -7 -39 -15 -18 -13 -17 -14 19 -15 20 0
37 -4 37 -10 0 -5 -14 -10 -32 -10 -39 0 -27 -17 20 -26 21 -4 32 -3 32 5 0 6
9 11 20 11 11 0 20 -4 20 -10 0 -5 -7 -10 -16 -10 -9 0 -22 -7 -28 -15 -17
-23 -69 -2 -125 52 -43 42 -45 45 -28 58 11 8 26 11 35 8 14 -5 15 -3 5 8 -17
18 -16 29 2 29 8 0 15 -9 15 -20z m160 10 c0 -5 -7 -10 -15 -10 -8 0 -15 5
-15 10 0 6 7 10 15 10 8 0 15 -4 15 -10z m-43 -26 c-3 -3 -12 -4 -19 -1 -8 3
-5 6 6 6 11 1 17 -2 13 -5z m-204 -11 c-7 -2 -21 -2 -30 0 -10 3 -4 5 12 5 17
0 24 -2 18 -5z m417 -37 c0 -11 -19 -15 -25 -6 -3 5 1 10 9 10 9 0 16 -2 16
-4z m2155 -25 c-6 -5 -25 10 -25 20 0 5 6 4 14 -3 8 -7 12 -15 11 -17z m-2215
-11 c0 -5 -6 -10 -14 -10 -7 0 -18 -6 -24 -13 -7 -8 -25 -11 -49 -8 l-38 5 30
6 30 7 -25 11 c-22 9 -18 11 33 11 32 1 57 -3 57 -9z m3093 -10 c-4 -14 0 -20
11 -20 9 0 16 -4 16 -10 0 -12 -3 -12 -24 -4 -16 6 -22 35 -9 47 10 11 11 8 6
-13z m-3423 -5 c29 -15 40 -35 20 -35 -5 0 -10 -4 -10 -9 0 -5 8 -7 19 -4 10
3 22 0 25 -6 4 -6 0 -11 -10 -11 -9 0 -23 -8 -30 -17 -12 -17 -14 -17 -36 4
-13 11 -32 23 -43 25 -12 2 -20 11 -20 23 0 17 6 20 35 17 33 -3 34 -2 15 12
-26 20 -3 20 35 1z m2979 3 c52 -16 101 -38 101 -44 0 -7 -85 4 -165 21 -53
12 -56 14 -22 14 20 1 37 6 37 11 0 13 6 13 49 -2z m-2384 -14 c27 -11 -4 -24
-57 -24 -55 0 -74 17 -26 23 59 7 66 7 83 1z m-1002 -21 c-3 -8 -12 -12 -20
-9 -8 3 -19 6 -24 6 -6 0 -8 4 -5 9 3 5 17 9 30 9 17 0 23 -5 19 -15z m787 7
c13 -9 13 -10 0 -10 -8 0 -22 5 -30 10 -13 9 -13 10 0 10 8 0 22 -5 30 -10z
m-943 -26 c12 -26 11 -26 -17 -20 -29 5 -42 -7 -17 -17 26 -11 -40 -5 -73 6
-46 16 -44 29 5 43 65 20 88 17 102 -12z m3699 13 c4 -4 0 -7 -9 -7 -9 0 -17
-5 -17 -11 0 -5 -4 -7 -10 -4 -18 11 -11 32 10 30 11 -1 23 -4 26 -8z m-3588
-17 c21 0 24 -2 12 -10 -21 -14 -33 -12 -56 6 -17 14 -17 15 -1 10 10 -3 31
-6 45 -6z m738 -11 c3 -5 15 -9 27 -9 22 1 22 1 3 15 -30 23 3 19 38 -4 26
-17 31 -18 44 -4 12 12 16 12 23 1 13 -20 11 -28 -8 -26 -40 3 -55 -2 -50 -17
4 -8 2 -17 -3 -20 -6 -4 -10 3 -10 13 0 17 -8 21 -49 24 -27 1 -47 0 -44 -4 2
-5 -2 -8 -10 -8 -12 0 -13 8 -8 52 1 8 40 -2 47 -13z m2767 -26 c-7 -2 -19 -2
-25 0 -7 3 -2 5 12 5 14 0 19 -2 13 -5z m-441 -17 c32 -4 48 -2 51 7 6 19 35
-10 63 -65 13 -26 24 -50 24 -53 0 -11 -25 -4 -82 25 -32 17 -64 30 -70 30 -6
0 -31 9 -55 21 -52 25 -58 50 -10 44 17 -2 53 -6 79 -9z m-2142 -6 c0 -5 -2
-10 -4 -10 -3 0 -8 5 -11 10 -3 6 -1 10 4 10 6 0 11 -4 11 -10z m-268 -6 c55
-9 36 -24 -31 -24 -40 0 -63 5 -71 15 -11 13 -7 15 26 15 22 0 56 -3 76 -6z
m2748 2 c0 -11 -19 -15 -25 -6 -3 5 1 10 9 10 9 0 16 -2 16 -4z m-2541 -20
c13 -15 11 -16 -52 -30 -45 -10 -26 -31 31 -34 53 -3 68 -15 32 -25 -30 -8
-103 4 -118 20 -7 7 -28 13 -46 13 -19 0 -39 6 -45 14 -9 11 -3 16 31 24 23 6
48 7 56 3 15 -8 82 9 82 21 0 13 17 9 29 -6z m101 -27 c0 -12 -57 -11 -65 1
-3 6 -4 14 0 19 7 12 65 -7 65 -20z m2297 15 c-3 -3 -12 -4 -19 -1 -8 3 -5 6
6 6 11 1 17 -2 13 -5z m266 -1 c-7 -2 -21 -2 -30 0 -10 3 -4 5 12 5 17 0 24
-2 18 -5z m-3243 -18 c0 -8 -6 -15 -14 -15 -17 0 -28 14 -19 24 12 12 33 6 33
-9z m160 5 c8 -5 12 -11 10 -13 -10 -7 -100 5 -100 14 0 12 71 11 90 -1z
m2925 -2 c33 -15 32 -30 -2 -22 -21 4 -24 3 -13 -5 21 -15 2 -27 -20 -13 -11
7 -29 12 -40 12 -25 0 -26 15 -2 29 23 14 46 13 77 -1z m-2810 -18 c17 -7 14
-9 -13 -9 -20 -1 -31 3 -27 9 7 12 13 12 40 0z m55 -10 c8 -5 11 -10 5 -10 -5
0 -17 5 -25 10 -8 5 -10 10 -5 10 6 0 17 -5 25 -10z m-146 -20 c4 -5 32 -6 61
-3 76 8 153 -29 93 -45 -19 -5 -17 -7 16 -16 21 -6 38 -15 37 -21 -4 -15 -101
-35 -143 -28 -21 3 -43 12 -49 19 -6 8 -22 14 -35 14 -12 0 -26 5 -29 10 -3 6
-22 10 -41 10 -19 0 -34 5 -34 10 0 10 23 13 70 11 14 -1 34 5 45 14 18 14 12
15 -83 9 -94 -6 -102 -5 -96 10 5 14 14 16 43 11 20 -3 48 -2 61 4 25 9 68 5
84 -9z m3556 0 c13 -8 13 -10 -2 -10 -9 0 -20 5 -23 10 -8 13 5 13 25 0z m180
0 c0 -5 -4 -10 -9 -10 -6 0 -13 5 -16 10 -3 6 1 10 9 10 9 0 16 -4 16 -10z
m-20 -36 c0 -8 -4 -14 -10 -14 -5 0 -10 -4 -10 -10 0 -5 9 -10 19 -10 21 0 54
-38 45 -52 -3 -4 -12 -2 -20 6 -8 8 -23 18 -34 21 -11 3 -20 15 -20 25 0 17
-19 31 -43 29 -7 0 -1 -5 13 -10 20 -8 22 -12 10 -19 -34 -22 -150 1 -150 29
0 11 50 21 104 21 22 0 48 4 56 10 17 10 40 -5 40 -26z m-1000 11 c16 -8 35
-27 42 -42 12 -25 20 -28 66 -31 30 -2 50 -7 47 -13 -8 -13 -79 -11 -92 2 -6
6 -17 9 -23 7 -8 -2 -2 -15 17 -33 35 -37 32 -60 -10 -70 -30 -8 -31 -8 -7
-12 14 -3 39 -18 56 -35 27 -26 30 -32 20 -53 -14 -31 -57 -39 -94 -18 -28 16
-31 16 -55 0 -34 -22 -49 -21 -70 3 -9 11 -12 20 -6 20 7 0 8 11 4 31 -5 22
-3 34 6 40 11 7 10 9 -3 9 -9 0 -19 -4 -23 -10 -13 -21 -35 3 -35 39 0 59 10
79 48 98 l37 18 -37 3 c-44 4 -48 13 -15 35 44 29 87 33 127 12z m210 -5 c10
-10 15 -22 10 -25 -11 -7 -51 31 -42 39 8 9 10 8 32 -14z m-3590 -30 c0 -5
-15 -10 -32 -10 -25 0 -29 3 -18 10 20 13 50 13 50 0z m-70 -18 c0 -13 -12
-22 -22 -16 -10 6 -1 24 13 24 5 0 9 -4 9 -8z m3704 -7 c3 -8 1 -15 -4 -15 -6
0 -10 7 -10 15 0 8 2 15 4 15 2 0 6 -7 10 -15z m-3607 -12 c5 -13 -25 -26 -38
-17 -6 3 -5 11 2 20 13 16 31 14 36 -3z m493 -3 c-19 -13 -30 -13 -30 0 0 6
10 10 23 10 18 0 19 -2 7 -10z m2688 3 c-10 -2 -26 -2 -35 0 -10 3 -2 5 17 5
19 0 27 -2 18 -5z m-3288 -44 c0 -11 -3 -11 -24 -3 -23 9 -20 23 4 17 11 -3
20 -9 20 -14z m634 -6 c4 -15 3 -29 -4 -33 -6 -4 -8 -14 -5 -22 4 -11 -2 -18
-21 -22 -37 -10 -43 2 -14 24 22 17 23 19 7 25 -17 7 -23 35 -10 48 16 16 41
6 47 -20z m3169 10 c-7 -2 -19 -2 -25 0 -7 3 -2 5 12 5 14 0 19 -2 13 -5z
m-3867 -30 c-10 -10 -19 5 -10 18 6 11 8 11 12 0 2 -7 1 -15 -2 -18z m3714 15
c0 -4 -18 -8 -41 -8 -22 0 -38 4 -35 8 2 4 21 8 40 8 20 0 36 -4 36 -8z m-430
-13 c-7 -8 -16 -12 -21 -9 -13 8 -1 24 18 24 13 0 13 -3 3 -15z m1164 0 c7
-18 -16 -30 -41 -21 -14 6 -14 8 3 21 24 18 31 18 38 0z m-4386 -13 c7 -5 10
-16 7 -25 -6 -14 -9 -13 -26 4 -10 10 -19 21 -19 24 0 8 24 6 38 -3z m3624
-33 c39 -20 41 -22 23 -35 -10 -8 -23 -14 -28 -14 -12 0 -46 42 -47 58 0 16 4
16 52 -9z m-3536 0 c3 -6 1 -22 -7 -35 -10 -20 -20 -24 -62 -24 -34 0 -47 4
-45 13 3 6 17 13 31 15 25 3 39 22 16 22 -5 0 -7 5 -4 10 8 13 62 13 71 -1z
m4399 1 c3 -5 -1 -10 -9 -10 -9 0 -16 -4 -16 -10 0 -15 -19 -12 -36 4 -12 13
-10 15 13 19 16 2 31 5 35 6 4 0 10 -3 13 -9z m-710 -10 c3 -5 1 -10 -4 -10
-6 0 -11 5 -11 10 0 6 2 10 4 10 3 0 8 -4 11 -10z m10 -40 c3 -5 1 -10 -4 -10
-6 0 -11 5 -11 10 0 6 2 10 4 10 3 0 8 -4 11 -10z m-41 -11 c14 -7 27 -18 30
-26 5 -11 2 -11 -15 -1 -12 7 -31 19 -43 25 -26 16 -5 17 28 2z m151 -9 c-3
-5 -13 -10 -21 -10 -8 0 -14 5 -14 10 0 6 9 10 21 10 11 0 17 -4 14 -10z
m-620 -10 c-3 -5 -10 -10 -16 -10 -5 0 -9 5 -9 10 0 6 7 10 16 10 8 0 12 -4 9
-10z m395 -6 c0 -8 -4 -12 -10 -9 -5 3 -10 10 -10 16 0 5 5 9 10 9 6 0 10 -7
10 -16z m212 -6 c31 1 50 -25 63 -87 l7 -35 -30 26 c-17 14 -48 28 -70 32 -44
7 -63 23 -41 37 11 7 10 11 -6 24 -19 16 -18 16 15 9 19 -4 47 -6 62 -6z
m-637 -27 c6 -11 -33 -26 -43 -16 -4 3 0 10 8 15 19 12 27 12 35 1z m438 -12
c31 -7 57 -16 57 -21 0 -6 -15 -7 -36 -3 -21 4 -34 3 -30 -3 3 -5 24 -12 46
-16 22 -3 43 -13 46 -21 4 -8 30 -22 60 -31 62 -18 79 -34 34 -34 -34 0 -79
20 -99 44 -8 10 -30 16 -56 16 -29 0 -47 6 -60 20 -10 11 -26 22 -36 25 -24 8
-25 35 -1 35 10 0 44 -5 75 -11z m707 -9 c20 -6 21 -8 5 -8 -11 0 -29 3 -40 8
-25 11 1 11 35 0z m-1000 -36 c0 -18 -17 -26 -40 -19 -19 6 -19 7 -2 30 12 17
20 20 30 13 6 -6 12 -16 12 -24z m1095 3 c6 -5 -2 -5 -20 -1 -37 8 -45 13 -45
24 0 10 47 -7 65 -23z m-660 3 c22 -11 49 -20 61 -20 16 0 25 -9 33 -31 13
-39 13 -39 2 -39 -5 0 -11 10 -13 23 -2 16 -11 23 -30 25 -16 2 -28 7 -28 11
0 4 -13 6 -28 3 -17 -2 -33 2 -41 11 -10 13 -9 15 11 10 22 -4 22 -4 4 11 -26
21 -18 20 29 -4z m-217 -10 c19 -5 34 -10 35 -12 1 -1 8 -13 15 -25 16 -29 -1
-30 -29 -2 -19 19 -30 21 -80 16 -33 -3 -59 -1 -59 4 0 14 54 39 70 32 8 -3
30 -9 48 -13z m-283 -30 c-3 -5 -17 -10 -31 -10 -14 0 -22 4 -19 10 3 6 17 10
31 10 14 0 22 -4 19 -10z m945 -41 c0 -6 -4 -7 -10 -4 -5 3 -10 11 -10 16 0 6
5 7 10 4 6 -3 10 -11 10 -16z m-3390 3 c0 -10 -41 -35 -47 -28 -11 11 7 36 27
36 11 0 20 -3 20 -8z m3055 -42 c3 -5 -3 -10 -14 -10 -12 0 -21 5 -21 10 0 6
6 10 14 10 8 0 18 -4 21 -10z m-347 -16 c-4 -13 -58 -8 -72 6 -8 8 -1 10 32 7
23 -2 41 -8 40 -13z m243 0 c25 -3 53 -12 64 -20 18 -13 18 -14 0 -34 -19 -21
-69 -27 -80 -10 -3 6 4 14 17 19 23 9 23 9 -7 20 -16 6 -39 15 -50 20 -25 12
-6 14 56 5z m-144 -22 c6 -4 -6 -8 -28 -8 -21 -1 -39 2 -39 7 0 11 50 12 67 1z
m447 -27 c3 -8 1 -15 -3 -15 -5 0 -11 7 -15 15 -3 8 -1 15 3 15 5 0 11 -7 15
-15z m-788 -60 c40 -43 54 -78 54 -133 0 -23 2 -24 40 -18 31 5 40 3 40 -8 0
-8 6 -16 13 -19 8 -3 7 -10 -7 -26 -19 -21 -19 -21 1 -21 15 0 20 -7 20 -30 0
-16 -4 -30 -9 -30 -4 0 -8 -15 -8 -33 0 -18 -6 -42 -14 -52 -8 -11 -12 -25 -9
-32 3 -7 0 -13 -6 -13 -6 0 -8 -7 -5 -15 4 -9 0 -15 -10 -15 -9 0 -13 -6 -10
-14 6 -17 -14 -32 -26 -20 -12 12 9 93 30 121 15 19 17 41 11 104 -1 7 -85 49
-99 49 -6 0 -9 7 -5 16 4 12 0 15 -18 13 -15 -2 -41 9 -67 28 -24 18 -60 37
-80 44 -20 6 -41 16 -47 22 -18 17 57 -2 107 -28 27 -14 48 -21 48 -16 0 19
-70 70 -120 86 -66 22 -58 30 14 15 44 -9 64 -20 96 -52 22 -23 42 -39 45 -36
12 12 -63 94 -104 115 -59 30 -63 37 -16 28 64 -11 98 -38 132 -105 17 -34 33
-55 36 -48 5 17 -34 95 -68 137 -41 48 -7 37 41 -14z m-2606 13 c0 -5 -9 -12
-20 -15 -25 -7 -25 -12 -2 -29 14 -11 15 -16 4 -31 -6 -10 -16 -28 -21 -39 -9
-20 -41 -41 -41 -26 0 4 4 23 10 42 5 19 12 51 15 70 3 19 11 38 17 41 14 9
38 0 38 -13z m3808 -6 c2 -7 -2 -10 -12 -6 -9 3 -16 1 -16 -5 0 -6 4 -11 9
-11 5 0 11 -7 15 -15 3 -10 -1 -15 -13 -15 -19 0 -32 33 -23 58 5 16 34 12 40
-6z m-3473 -1 c-10 -10 -122 -41 -146 -41 -24 0 6 20 52 34 52 16 108 20 94 7z
m2825 -26 c0 -8 -4 -15 -9 -15 -5 0 -11 7 -15 15 -3 9 0 15 9 15 8 0 15 -7 15
-15z m470 5 c12 -8 11 -10 -7 -10 -12 0 -25 5 -28 10 -8 13 15 13 35 0z m106
-21 c3 -5 -5 -9 -18 -9 -30 0 -68 11 -68 19 0 10 79 0 86 -10z m-3291 1 c3 -5
3 -10 -2 -11 -56 -4 -103 -11 -123 -19 -40 -16 -164 -30 -174 -20 -9 9 -5 10
89 29 28 5 61 14 75 20 33 13 127 14 135 1z m3159 3 c3 -4 12 -8 19 -10 67
-14 148 -41 140 -46 -6 -4 -40 2 -76 12 -37 10 -64 14 -61 10 13 -21 -23 -6
-39 16 -14 19 -15 25 -4 25 7 0 17 -3 21 -7z m-899 -23 c3 -5 1 -10 -4 -10 -6
0 -11 5 -11 10 0 6 2 10 4 10 3 0 8 -4 11 -10z m892 -21 c19 -18 25 -20 38 -9
17 14 22 12 25 -10 5 -34 0 -46 -12 -25 -10 17 -12 17 -17 2 -5 -14 -11 -12
-39 14 -30 28 -41 49 -25 49 4 0 17 -10 30 -21z m-3082 -10 c6 -6 -3 -7 -23
-3 -18 4 -32 4 -32 1 0 -3 29 -29 65 -57 36 -29 64 -54 62 -56 -9 -9 -97 38
-97 51 0 13 -37 45 -52 45 -21 0 -4 -42 33 -84 34 -38 38 -46 21 -46 -11 0
-25 7 -32 15 -7 8 -19 15 -26 15 -8 0 -14 7 -14 15 0 8 -4 15 -9 15 -5 0 -11
12 -13 27 -2 14 -9 28 -15 31 -10 3 -13 -14 -13 -63 0 -68 -12 -80 -24 -23 -5
26 -9 30 -17 18 -7 -11 -8 -7 -3 14 5 22 2 32 -11 42 -23 17 -10 36 23 34 15
-1 32 -1 37 0 6 1 19 2 30 1 11 -1 29 5 40 13 20 15 51 12 70 -5z m-405 3 c0
-13 -12 -22 -22 -16 -10 6 -1 24 13 24 5 0 9 -4 9 -8z m3600 -12 c12 -8 10 -9
-7 -7 -12 2 -26 6 -29 10 -11 11 19 8 36 -3z m-1000 -30 c0 -11 -6 -20 -14
-20 -9 0 -12 7 -9 20 3 11 9 20 14 20 5 0 9 -9 9 -20z m-3643 -6 c-3 -3 -12
-4 -19 -1 -8 3 -5 6 6 6 11 1 17 -2 13 -5z m3445 -80 c3 -3 0 -28 -8 -57 -7
-28 -12 -52 -10 -54 1 -1 13 15 25 37 24 43 51 53 51 20 0 -11 5 -20 10 -20 6
0 10 -9 10 -20 0 -13 7 -20 18 -20 19 0 42 -18 42 -32 0 -4 -7 -8 -16 -8 -13
0 -14 -3 -4 -15 16 -19 3 -37 -23 -33 -12 1 -28 -2 -36 -7 -10 -6 -19 -2 -29
13 -18 27 -46 30 -40 4 4 -15 -2 -19 -30 -20 -31 -3 -34 -1 -22 13 7 8 10 18
8 21 -3 3 -15 -7 -26 -21 -12 -15 -23 -21 -27 -15 -10 16 -45 12 -39 -4 3 -8
0 -17 -7 -21 -13 -9 -32 12 -86 95 -20 30 -50 68 -66 83 -42 39 -28 43 29 9
36 -20 57 -42 78 -81 19 -36 32 -49 38 -43 17 17 1 57 -47 116 -60 72 -36 72
38 -1 42 -41 57 -63 57 -84 0 -15 5 -31 10 -34 6 -4 10 17 10 55 0 47 -5 69
-21 91 -15 22 -17 29 -6 29 19 0 45 -30 59 -70 10 -30 12 -31 19 -14 4 10 8
36 8 57 1 34 16 49 33 31z m132 -79 c11 -8 15 -15 9 -15 -19 0 -43 12 -43 21
0 13 12 11 34 -6z m-493 -20 c16 -9 61 -47 98 -85 38 -39 76 -70 85 -70 9 0
16 -4 16 -10 0 -25 -48 -6 -99 39 -153 134 -179 166 -100 126z m-1861 -94 c0
-6 -4 -13 -10 -16 -5 -3 -10 1 -10 9 0 9 5 16 10 16 6 0 10 -4 10 -9z m2348
-46 c-3 -3 -9 2 -12 12 -6 14 -5 15 5 6 7 -7 10 -15 7 -18z m-392 -11 c49 -29
59 -48 17 -33 -34 11 -93 58 -75 59 7 0 33 -12 58 -26z m339 -15 c53 -13 81
-39 44 -39 -13 0 -39 4 -58 10 -25 7 -41 6 -60 -5 -108 -58 -166 -69 -166 -31
0 14 13 22 53 32 30 8 63 21 75 29 26 18 53 19 112 4z m-2228 -31 c-3 -8 -6
-5 -6 6 -1 11 2 17 5 13 3 -3 4 -12 1 -19z m113 -30 c0 -12 -25 -9 -38 4 -20
20 -14 27 13 15 14 -7 25 -15 25 -19z m-95 -8 c3 -5 1 -10 -4 -10 -6 0 -11 5
-11 10 0 6 2 10 4 10 3 0 8 -4 11 -10z m2255 -8 c0 -17 -102 -64 -126 -58 -25
7 -33 26 -11 26 7 0 30 9 52 20 40 20 85 27 85 12z m132 -134 c3 -30 0 -38
-11 -36 -9 2 -18 17 -21 33 -4 17 -11 39 -17 50 -6 11 -8 26 -5 34 8 25 50
-37 54 -81z m-264 66 c32 -9 28 -28 -5 -19 -32 7 -55 25 -32 25 7 0 24 -3 37
-6z m-1922 -546 c8 -12 -21 -38 -43 -38 -16 0 -17 22 -1 38 15 15 35 15 44 0z
m217 -61 c-12 -5 -30 -6 -40 -3 -17 7 -17 8 1 21 14 11 24 12 40 3 l21 -11
-22 -10z m-738 13 c3 -5 1 -10 -4 -10 -6 0 -11 5 -11 10 0 6 2 10 4 10 3 0 8
-4 11 -10z m-128 -37 c4 -11 -32 -25 -41 -15 -8 8 15 33 27 29 6 -2 12 -8 14
-14z m1098 -14 c-4 -5 -16 -9 -28 -9 -21 1 -21 1 -3 15 20 15 41 11 31 -6z
m100 -79 c3 -5 -1 -10 -9 -10 -9 0 -16 5 -16 10 0 6 4 10 9 10 6 0 13 -4 16
-10z m97 -7 c20 -18 24 -43 8 -43 -26 0 -69 31 -64 45 8 20 33 19 56 -2z m243
-5 c27 -12 32 -24 13 -31 -23 -7 -48 5 -48 24 0 22 1 23 35 7z m-885 -78 c0
-5 -5 -10 -11 -10 -5 0 -7 5 -4 10 3 6 8 10 11 10 2 0 4 -4 4 -10z m335 -35
c0 -11 -8 -21 -17 -23 -14 -3 -18 3 -18 23 0 20 4 26 18 23 9 -2 17 -12 17
-23z"/>
<path d="M3480 3470 c0 -5 5 -10 11 -10 5 0 7 5 4 10 -3 6 -8 10 -11 10 -2 0
-4 -4 -4 -10z"/>
<path d="M3528 3463 c7 -3 16 -2 19 1 4 3 -2 6 -13 5 -11 0 -14 -3 -6 -6z"/>
<path d="M1285 2100 c-4 -6 6 -10 22 -10 22 0 25 2 13 10 -19 12 -27 12 -35 0z"/>
<path d="M1626 1411 c-4 -5 -2 -12 3 -15 5 -4 12 -2 15 3 4 5 2 12 -3 15 -5 4
-12 2 -15 -3z"/>
<path d="M3777 1173 c-12 -11 -8 -23 8 -23 8 0 15 7 15 15 0 16 -12 20 -23 8z"/>
<path d="M3880 1171 c0 -5 7 -14 15 -21 16 -14 18 -10 9 14 -6 17 -24 22 -24
7z"/>
<path d="M3488 4873 c-19 -5 -25 -43 -7 -43 14 0 50 20 67 37 11 11 9 13 -15
12 -15 -1 -36 -3 -45 -6z"/>
<path d="M918 4763 c7 -3 16 -2 19 1 4 3 -2 6 -13 5 -11 0 -14 -3 -6 -6z"/>
<path d="M2 4523 l3 -126 25 -3 c41 -4 260 -46 435 -84 28 -5 64 -12 80 -15
17 -2 48 -7 70 -10 22 -4 65 -13 95 -20 52 -13 256 -54 380 -77 76 -14 120
-23 230 -48 52 -12 111 -23 131 -26 20 -2 61 -10 90 -18 l54 -13 8 100 c5 54
5 103 0 107 -4 4 -102 28 -218 53 -115 26 -365 80 -555 122 -190 42 -428 94
-530 116 -102 22 -211 46 -243 53 l-58 14 3 -125z"/>
<path d="M170 4310 c14 -4 34 -8 45 -8 l20 -1 -20 9 c-11 5 -31 8 -45 8 l-25
0 25 -8z"/>
<path d="M498 4263 c6 -2 18 -2 25 0 6 3 1 5 -13 5 -14 0 -19 -2 -12 -5z"/>
<path d="M908 4173 c6 -2 18 -2 25 0 6 3 1 5 -13 5 -14 0 -19 -2 -12 -5z"/>
<path d="M1100 4141 c8 -5 31 -11 50 -14 l35 -6 -30 14 c-33 16 -81 21 -55 6z"/>
<path d="M4141 4134 c0 -11 3 -14 6 -6 3 7 2 16 -1 19 -3 4 -6 -2 -5 -13z"/>
<path d="M1201 4116 c2 -2 18 -6 34 -10 22 -5 26 -4 15 4 -14 9 -59 15 -49 6z"/>
<path d="M1730 4040 c8 -5 24 -9 35 -9 l20 0 -20 9 c-11 5 -27 9 -35 9 -13 1
-13 0 0 -9z"/>
<path d="M2048 3933 c6 -2 18 -2 25 0 6 3 1 5 -13 5 -14 0 -19 -2 -12 -5z"/>
<path d="M4238 3523 c7 -3 16 -2 19 1 4 3 -2 6 -13 5 -11 0 -14 -3 -6 -6z"/>
<path d="M4939 2253 c-22 -12 -20 -12 21 -7 54 8 58 10 26 16 -13 3 -35 -1
-47 -9z"/>
<path d="M5055 2230 c3 -5 11 -10 16 -10 6 0 7 5 4 10 -3 6 -11 10 -16 10 -6
0 -7 -4 -4 -10z"/>
<path d="M5008 2213 c6 -2 18 -2 25 0 6 3 1 5 -13 5 -14 0 -19 -2 -12 -5z"/>
<path d="M5063 2186 c4 -14 57 -21 57 -8 0 5 -14 12 -30 14 -19 3 -29 1 -27
-6z"/>
<path d="M5097 2003 c-13 -12 -7 -33 8 -33 8 0 15 9 15 20 0 20 -11 26 -23 13z"/>
<path d="M346 1776 c-18 -29 -10 -34 20 -12 14 11 16 18 8 26 -8 8 -15 4 -28
-14z"/>
<path d="M4755 1601 c-3 -6 7 -13 22 -17 15 -3 37 -8 48 -11 l20 -5 -20 15
c-29 21 -62 29 -70 18z"/>
<path d="M4852 1585 c0 -16 2 -22 5 -12 2 9 2 23 0 30 -3 6 -5 -1 -5 -18z"/>
<path d="M4970 1570 c0 -6 7 -10 15 -10 8 0 15 2 15 4 0 2 -7 6 -15 10 -8 3
-15 1 -15 -4z"/>
</g>
</svg>
