<?xml version="1.0" standalone="no"?>
<!DOCTYPE svg PUBLIC "-//W3C//DTD SVG 20010904//EN"
 "http://www.w3.org/TR/2001/REC-SVG-20010904/DTD/svg10.dtd">
<svg version="1.0" xmlns="http://www.w3.org/2000/svg"
 width="128.000000pt" height="128.000000pt" viewBox="0 0 128.000000 128.000000"
 preserveAspectRatio="xMidYMid meet">
<metadata>
Created by potrace 1.15, written by Peter Selinger 2001-2017
</metadata>
<g transform="translate(0.000000,128.000000) scale(0.100000,-0.100000)"
fill="#000000" stroke="none">
<path d="M538 1212 l-73 -71 74 -74 c53 -54 78 -73 92 -70 27 7 75 -15 94 -43
8 -13 15 -38 15 -56 0 -28 11 -45 68 -101 58 -58 73 -67 103 -67 71 0 116 -72
85 -137 -23 -48 -73 -69 -120 -49 -44 18 -70 57 -64 96 4 25 -4 38 -59 92
l-63 62 0 -168 c0 -165 1 -169 25 -198 35 -42 34 -91 -4 -129 -21 -21 -39 -29
-64 -29 -42 0 -92 37 -101 75 -8 30 17 93 39 101 13 5 15 33 15 184 0 153 -2
179 -17 191 -22 19 -43 72 -37 95 3 14 -15 39 -68 92 l-74 72 -203 -204 -204
-205 6 -38 c6 -33 42 -73 302 -332 289 -290 295 -296 335 -296 40 0 46 6 337
298 292 291 298 297 298 337 0 40 -6 46 -296 335 -356 357 -332 344 -441 237z"/>
</g>
</svg>
