<?xml version="1.0" standalone="no"?>
<!DOCTYPE svg PUBLIC "-//W3C//DTD SVG 20010904//EN"
 "http://www.w3.org/TR/2001/REC-SVG-20010904/DTD/svg10.dtd">
<svg version="1.0" xmlns="http://www.w3.org/2000/svg"
 width="100.000000pt" height="100.000000pt" viewBox="0 0 229.000000 120.000000"
 preserveAspectRatio="xMidYMid meet">
<metadata>
Created by potrace 1.15, written by opeeny 2001-2017
</metadata>
<g transform="translate(0.000000,120.000000) scale(0.100000,-0.100000)"
fill="#000" stroke="none">
<path d="M626 1165 c-58 -30 -55 -8 -56 -566 0 -509 0 -515 21 -538 11 -12 32
-26 46 -32 32 -12 984 -12 1016 0 14 6 35 20 46 32 21 23 21 29 21 539 0 510
0 516 -21 539 -11 12 -32 26 -46 32 -14 5 -232 9 -511 9 -416 0 -491 -2 -516
-15z m274 -133 c14 -10 33 -35 44 -56 16 -32 17 -44 7 -76 -22 -75 -104 -116
-174 -87 -96 41 -100 178 -6 229 40 22 90 18 129 -10z m556 -277 c59 -17 106
-63 130 -125 23 -58 34 -451 14 -475 -14 -17 -155 -21 -180 -5 -12 7 -16 46
-20 204 -4 174 -7 196 -24 215 -16 18 -29 21 -70 19 -45 -3 -53 -7 -73 -37
-22 -32 -23 -43 -23 -207 0 -207 1 -204 -100 -204 -110 0 -100 -30 -100 310 0
340 -10 310 100 310 71 0 100 -14 100 -47 0 -13 5 -12 24 6 27 25 95 49 142
50 17 1 53 -6 80 -14z m-545 -5 c18 -10 19 -24 19 -300 0 -276 -1 -290 -19
-300 -27 -14 -154 -13 -169 2 -17 17 -17 579 0 596 15 15 142 16 169 2z"/>
</g>
</svg>
