<?xml version="1.0" standalone="no"?>
<!DOCTYPE svg PUBLIC "-//W3C//DTD SVG 20010904//EN"
 "http://www.w3.org/TR/2001/REC-SVG-20010904/DTD/svg10.dtd">
<svg version="1.0" xmlns="http://www.w3.org/2000/svg"
 width="124.000000pt" height="124.000000pt" viewBox="0 0 124.000000 124.000000"
 preserveAspectRatio="xMidYMid meet">
<metadata>
Created by potrace 1.15, written by Peter Selinger 2001-2017
</metadata>
<g transform="translate(0.000000,124.000000) scale(0.100000,-0.100000)"
fill="#000000" stroke="none">
<path d="M522 1229 c-139 -24 -242 -81 -347 -190 -116 -122 -169 -253 -169
-419 0 -175 54 -302 183 -431 129 -129 255 -183 431 -183 176 0 302 54 431
183 133 132 184 257 182 441 -2 171 -64 311 -191 432 -32 31 -81 70 -108 88
-102 65 -290 101 -412 79z m-93 -264 c75 -38 41 -145 -45 -145 -112 0 -113
155 -1 159 10 1 31 -6 46 -14z m434 -194 c46 -11 82 -42 108 -93 16 -32 19
-60 19 -203 l0 -165 -74 0 -75 0 -3 149 c-3 130 -5 152 -22 170 -26 29 -71 27
-101 -4 -24 -23 -25 -28 -25 -170 l0 -146 -77 3 -78 3 0 225 0 225 75 0 c71 0
74 -1 80 -25 4 -18 8 -21 14 -11 10 15 84 51 106 51 8 0 32 -4 53 -9z m-405
-233 l2 -228 -75 0 -75 0 0 230 0 231 73 -3 72 -3 3 -227z"/>
</g>
</svg>
